<svg xmlns="http://www.w3.org/2000/svg" version="1.1" viewBox="138.2178955078125 217.35598754882812 237.17132568359375 309.0685729980469" width="100%" height="756.0pt"><path d="M 205.39 217.83 C 207.81 218.63 209.11 220.71 210.59 222.64 C 205.51 225.93 199.59 226.13 194.93 229.92 C 186.43 236.65 181.50 247.07 179.64 257.58 C 177.84 268.95 178.97 280.16 181.70 291.28 C 183.14 296.88 184.08 303.27 186.94 308.30 C 189.17 307.47 191.36 306.59 193.49 305.52 C 206.26 299.15 219.62 293.92 233.00 289.01 C 245.47 284.88 257.73 280.67 270.42 277.40 C 279.42 274.89 288.65 273.38 297.66 270.91 C 302.27 270.40 306.80 269.54 311.36 268.76 C 320.51 267.20 329.74 266.27 339.00 265.72 C 347.40 265.40 356.59 265.75 364.58 268.63 C 368.33 269.99 372.17 272.21 374.21 275.77 C 376.16 279.20 375.45 283.47 373.83 286.88 C 371.79 291.07 368.34 294.79 364.96 297.95 C 355.59 306.38 345.18 312.22 334.22 318.25 C 332.64 319.12 331.10 319.67 329.34 320.04 C 322.26 308.61 313.43 298.86 301.14 293.00 C 293.66 289.42 285.24 290.09 277.17 290.55 C 266.71 291.87 256.37 294.56 246.16 297.16 C 226.22 302.87 206.44 309.36 187.26 317.26 C 177.46 321.24 167.76 325.40 158.41 330.37 C 154.43 332.31 150.47 334.88 146.24 336.05 C 143.26 326.22 140.63 316.14 138.94 306.01 C 137.21 292.80 138.44 279.38 144.25 267.27 C 150.11 254.55 160.29 245.26 172.13 238.13 C 176.57 235.44 181.34 233.49 185.90 231.05 C 186.79 228.21 186.98 224.26 189.12 222.10 C 193.43 218.08 199.67 216.47 205.39 217.83 Z" fill="#183f94"/><path d="M 210.59 222.64 L 211.53 222.87 C 215.13 223.92 219.47 222.17 223.19 221.96 C 240.73 220.09 261.19 223.18 274.98 235.02 C 286.14 244.11 292.73 257.67 297.66 270.91 C 288.65 273.38 279.42 274.89 270.42 277.40 C 257.73 280.67 245.47 284.88 233.00 289.01 C 219.62 293.92 206.26 299.15 193.49 305.52 C 191.36 306.59 189.17 307.47 186.94 308.30 C 184.08 303.27 183.14 296.88 181.70 291.28 C 178.97 280.16 177.84 268.95 179.64 257.58 C 181.50 247.07 186.43 236.65 194.93 229.92 C 199.59 226.13 205.51 225.93 210.59 222.64 Z" fill="#215bbc"/><path d="M 290.04 298.79 C 297.60 299.89 303.95 304.51 309.53 309.47 C 316.35 315.64 322.98 323.95 324.82 333.16 C 326.33 339.77 324.34 346.75 319.54 351.54 C 314.92 356.14 308.44 359.09 302.48 361.53 C 294.70 364.69 285.54 364.44 278.59 359.42 C 273.93 355.88 270.41 350.89 266.05 346.94 C 256.36 337.49 242.09 333.45 228.85 336.13 C 224.60 337.09 220.19 338.97 216.97 341.98 C 213.46 345.30 211.74 350.21 212.64 354.99 C 214.12 362.33 222.08 366.82 228.31 369.74 C 244.71 376.83 262.24 381.58 278.86 388.12 C 293.32 393.72 308.26 401.61 318.68 413.33 C 328.45 424.14 333.20 438.51 332.81 453.00 C 333.32 467.44 329.07 481.79 320.35 493.35 C 309.60 507.62 293.72 516.79 276.71 521.57 C 260.00 526.12 241.86 527.54 224.66 525.54 C 204.01 523.61 183.46 516.73 166.78 504.22 C 157.94 497.02 149.36 488.88 144.72 478.26 C 141.72 471.58 141.34 463.46 145.02 456.97 C 148.33 451.03 153.77 447.47 159.89 444.88 C 165.22 442.68 171.21 440.16 177.01 439.89 C 182.23 439.60 187.21 441.50 191.27 444.72 C 196.23 448.66 200.04 453.93 204.85 458.16 C 214.69 467.05 227.51 473.24 241.00 472.79 C 249.19 473.05 256.98 471.86 263.39 466.39 C 268.91 461.50 270.29 452.85 266.44 446.53 C 263.41 441.56 258.42 438.22 253.26 435.75 C 246.33 432.48 238.90 429.89 231.68 427.34 C 212.28 420.07 193.84 415.54 176.37 403.63 C 164.08 395.45 154.45 383.67 151.29 369.02 C 149.70 361.23 148.65 352.36 150.68 344.59 C 153.73 341.91 157.92 340.41 161.47 338.46 C 172.88 332.38 184.72 327.43 196.76 322.74 C 220.13 313.72 243.45 305.94 268.02 300.82 C 275.06 299.54 282.92 297.78 290.04 298.79 Z" fill="#173f94"/></svg>
