<svg xmlns="http://www.w3.org/2000/svg" width="1386" height="508" viewBox="0 0 1300 40">
  <g fill="grey" transform="translate(-46 -355.5)">
    <path fill="#183f94" d="M205.39 217.83c2.42.8 3.72 2.88 5.2 4.81-5.08 3.29-11 3.49-15.66 7.28-8.5 6.73-13.43 17.15-15.29 27.66-1.8 11.37-.67 22.58 2.06 33.7 1.44 5.6 2.38 11.99 5.24 17.02 2.23-.83 4.42-1.71 6.55-2.78 12.77-6.37 26.13-11.6 39.51-16.51 12.47-4.13 24.73-8.34 37.42-11.61 9-2.51 18.23-4.02 27.24-6.49 4.61-.51 9.14-1.37 13.7-2.15 9.15-1.56 18.38-2.49 27.64-3.04 8.4-.32 17.59.03 25.58 2.91 3.75 1.36 7.59 3.58 9.63 7.14 1.95 3.43 1.24 7.7-.38 11.11-2.04 4.19-5.49 7.91-8.87 11.07-9.37 8.43-19.78 14.27-30.74 20.3-1.58.87-3.12 1.42-4.88 1.79-7.08-11.43-15.91-21.18-28.2-27.04-7.48-3.58-15.9-2.91-23.97-2.45-10.46 1.32-20.8 4.01-31.01 6.61-19.94 5.71-39.72 12.2-58.9 20.1-9.8 3.98-19.5 8.14-28.85 13.11-3.98 1.94-7.94 4.51-12.17 5.68-2.98-9.83-5.61-19.91-7.3-30.04-1.73-13.21-.5-26.63 5.31-38.74 5.86-12.72 16.04-22.01 27.88-29.14 4.44-2.69 9.21-4.64 13.77-7.08.89-2.84 1.08-6.79 3.22-8.95 4.31-4.02 10.55-5.63 16.27-4.27"/>
    <path fill="#215bbc" d="m210.59 222.64.94.23c3.6 1.05 7.94-.7 11.66-.91 17.54-1.87 38 1.22 51.79 13.06 11.16 9.09 17.75 22.65 22.68 35.89-9.01 2.47-18.24 3.98-27.24 6.49-12.69 3.27-24.95 7.48-37.42 11.61-13.38 4.91-26.74 10.14-39.51 16.51-2.13 1.07-4.32 1.95-6.55 2.78-2.86-5.03-3.8-11.42-5.24-17.02-2.73-11.12-3.86-22.33-2.06-33.7 1.86-10.51 6.79-20.93 15.29-27.66 4.66-3.79 10.58-3.99 15.66-7.28"/>
    <path fill="#173f94" d="M290.04 298.79c7.56 1.1 13.91 5.72 19.49 10.68 6.82 6.17 13.45 14.48 15.29 23.69 1.51 6.61-.48 13.59-5.28 18.38-4.62 4.6-11.1 7.55-17.06 9.99-7.78 3.16-16.94 2.91-23.89-2.11-4.66-3.54-8.18-8.53-12.54-12.48-9.69-9.45-23.96-13.49-37.2-10.81-4.25.96-8.66 2.84-11.88 5.85-3.51 3.32-5.23 8.23-4.33 13.01 1.48 7.34 9.44 11.83 15.67 14.75 16.4 7.09 33.93 11.84 50.55 18.38 14.46 5.6 29.4 13.49 39.82 25.21 9.77 10.81 14.52 25.18 14.13 39.67.51 14.44-3.74 28.79-12.46 40.35-10.75 14.27-26.63 23.44-43.64 28.22-16.71 4.55-34.85 5.97-52.05 3.97-20.65-1.93-41.2-8.81-57.88-21.32-8.84-7.2-17.42-15.34-22.06-25.96-3-6.68-3.38-14.8.3-21.29 3.31-5.94 8.75-9.5 14.87-12.09 5.33-2.2 11.32-4.72 17.12-4.99 5.22-.29 10.2 1.61 14.26 4.83 4.96 3.94 8.77 9.21 13.58 13.44 9.84 8.89 22.66 15.08 36.15 14.63 8.19.26 15.98-.93 22.39-6.4 5.52-4.89 6.9-13.54 3.05-19.86-3.03-4.97-8.02-8.31-13.18-10.78-6.93-3.27-14.36-5.86-21.58-8.41-19.4-7.27-37.84-11.8-55.31-23.71-12.29-8.18-21.92-19.96-25.08-34.61-1.59-7.79-2.64-16.66-.61-24.43 3.05-2.68 7.24-4.18 10.79-6.13 11.41-6.08 23.25-11.03 35.29-15.72 23.37-9.02 46.69-16.8 71.26-21.92 7.04-1.28 14.9-3.04 22.02-2.03m510.95 28.64c11.5-.29 22.98 1.56 33.63 5.97 9.14 3.81 18.04 8.81 24.4 16.59 2.35 2.89 3.8 6.21 3.67 9.99.33 7.46-3.87 13.71-9.15 18.56-4.69 4.16-11.11 7-17.45 5.45-5.56-1.23-10.25-6.06-15.29-8.79-11.6-6.81-26.89-7.04-38.31.3-8.34 5.44-14.09 14.32-17.41 23.58-4.73 13.66-4.56 29 .19 42.63 3.07 8.48 8.58 16.85 16.31 21.73 10.17 6.75 23.87 8.13 35.05 3.14 8.81-4.08 13.97-13.45 14.34-22.96-8.65-.6-17.38 1.01-26 .35-4.15-.36-8.37-1.48-10.78-5.16-3.59-5.26-3.15-12.63-2.7-18.7.44-4.52 3.34-8.35 7.76-9.63 8.03-2.24 17.46-1.9 25.75-2.01 7.33.03 14.7-.18 22.01.3 5.77.67 12.08 1.61 16.52 5.7 4.73 4.03 6.15 10.93 6.8 16.81 1.12 15.33-1.17 31.86-8.51 45.53-7.38 14.19-20.94 24.97-36 30.07-12.38 4.31-25.9 4.76-38.82 3.25-17.39-2.3-33.83-10.49-46.06-23.08-13.52-13.35-21.45-31.66-24.43-50.26-1.43-8.08-1.28-16.64-1.03-24.83 1.54-25.61 13.14-50.95 33.55-66.93 14.71-11.63 33.25-17.68 51.96-17.6m168-.02c17.08-.49 34.42 4.33 48.46 14.13 4.14 2.92 8.5 6.53 11.09 10.95 2.34 3.81 2.61 8.71 1.65 12.98-1.64 5.93-6.05 11.19-10.92 14.81-4.38 3.27-9.72 5.04-15.17 3.71-5.28-1.27-9.98-5.7-14.67-8.42-10.29-6.47-24.07-7.3-35.08-2.22-9.76 4.8-16.96 14.19-20.74 24.23-5.25 14.1-5.17 29.97-.34 44.17 4.16 11.71 12.93 21.92 24.95 25.86 8.95 2.88 20.05 2.83 28.31-2.06 7.76-4.63 12.01-13.19 12.26-22.08-6.93-.1-13.87.48-20.79.69-3.7.07-7.98-.11-11.34-1.81-3.74-1.85-5.99-6.1-6.89-10.01-.74-3.95-.65-8.1-.2-12.08.56-4.2 2.79-8.09 6.99-9.48 8.49-2.6 18.63-2.19 27.44-2.3 9.35.14 19.43-.57 28.52 1.44 5.03 1.06 9.55 3.83 12.22 8.3 3.54 6.17 3.99 12.82 3.91 19.78.4 17.5-4.71 36.79-16.57 50.06-11.35 13.23-28.18 21.05-45.43 22.54-11.22.77-22.45.18-33.31-2.95-17.3-5.09-32.69-16.22-42.9-31.1-11.18-15.83-16.48-35.31-16.97-54.55-.56-15.62 2.43-31.28 9.05-45.46 7.35-15.98 19.4-29.59 34.72-38.32 12.77-7 27.14-10.96 41.75-10.81m-330.28 1.24c9.39 1 18.18 5.2 22.92 13.68 4.27 7.94 7.61 16.42 11.18 24.69 14.65 36.65 26.42 75.04 36.98 113.05 1.44 5.3 2.91 11.85 1.52 17.26-1.77 4.06-6.9 6.65-10.82 8.17-7.58 2.73-16.95 4.24-24.73 1.61-4.95-1.73-7.51-5.97-8.93-10.78-2.93-10.76-4.46-21.91-7.55-32.63-5.66-.9-11.56-.25-17.28-.41-12.1.18-24.26-.27-36.33.29-2.82 9.79-4.07 20.02-6.43 29.93-.98 3.94-2.05 7.75-4.97 10.73-3.21 3.26-7.83 4.22-12.24 4.31-5.88.01-11.8-1.28-17.31-3.27-3.93-1.54-8.27-3.88-10.03-7.94-1.91-4.14-.35-9.61.6-13.88 6.83-26.19 14.74-52.1 23.44-77.72 6.76-20.23 14.25-40.38 23.28-59.72 2.28-4.88 5.08-9.26 9.65-12.3 7.94-5 17.91-5.88 27.05-5.07m-264.97.96c4.87.67 9.35 3.63 11.62 8.03 1.71 3.31 2.52 7.24 3.29 10.86 6.17 33.38 10.7 67.81 19.6 100.58 2.36-5.15 3.48-10.33 5.19-15.82 4.68-15.53 9.3-31.1 14.3-46.54 1.27-3.73 2.54-7.93 4.81-11.17 3.36-4.72 9-7.23 14.58-8.17 7.58-1.43 16.48-.01 22.63 4.86 4.31 3.34 5.73 8.78 7.42 13.7 4.92 15.48 9.72 31.01 14.29 46.6 1.71 5.56 3.19 11.45 5.58 16.74 7.05-22.27 10.18-46.36 14.16-69.35 1.99-12.2 3.74-25.05 6.62-37.17 1.04-4.19 2.75-8.02 6.45-10.52 5.03-3.58 11.97-3.19 17.76-2.17 6.21 1.33 14.08 3.52 18.17 8.74 3.3 4.23 2.41 9.35 1.61 14.26-6.62 37.56-15 74.77-25.6 111.41-3.26 9.99-6.55 20.17-11.1 29.66-2.64 5.59-7.31 9.73-13.06 11.93-8.25 3.08-17.76 2.9-25.97-.19-7.08-2.96-10.96-9.31-13.94-16.03-8.36-19.88-13.14-40.69-19.63-60.82-.77 1.11-1.4 2.24-1.75 3.55-4.84 17.08-9.52 33.89-15.59 50.59-1.85 4.84-3.77 10.02-6.65 14.35-3.25 4.93-8.34 8.58-14.13 9.85-7.28 1.68-15.17.97-22.2-1.49-6.41-2.38-10.73-7.47-13.55-13.54-5.29-11.3-8.91-23.49-12.49-35.42-9.52-34.29-17.45-69.01-23.61-104.06-.5-3.66-1.44-6.97-.21-10.6 1.23-4.37 5.19-6.99 9.1-8.79 6.93-3 14.73-4.83 22.3-3.86m711.99.02c5.55.7 11.92 2.53 14.6 7.96 2.42 5.48 2.01 12.59 1.46 18.4-.48 10.68-.13 21.34-1.05 32-.35 20-.44 40.02.03 60.01.83 8.65.58 17.3.92 25.97.45 7.07 1.38 14.81 0 21.81-.94 4.72-4.25 8.45-8.69 10.22-6.54 2.55-14.08 2.87-20.97 1.9-5.12-.75-10.04-2.39-13.17-6.78-3.29-4.56-2.59-9.81-2.64-15.12.29-11.34.3-22.68.97-33.99.51-22.33.56-44.69-.02-67.02-.66-10-.58-19.98-1.01-29.99-.32-5.27-.87-10.1.69-15.27 1.23-3.8 4.27-6.52 7.9-8 6.41-2.68 14.16-2.7 20.98-2.1"/>
    <path fill="#183f94" d="M1205 329.88c9.4.65 19.62.71 28.94 2.42 4.84.86 8.05 4.65 9.3 9.23 1.97 7.18 1.64 15.98-2.29 22.47-2.99 4.54-7.84 5.47-12.93 5.57-16.85.11-33.9-2.21-51.07-.88-3.2.44-6.42.99-7.27 4.63-1.68 8.78-1.28 18.15-1.11 27.07 9.29-.84 18.74-1.93 28.02-1.89 7.08-.02 14.22-.44 21.29.01 4.04.29 7.83 2.11 9.98 5.64 3.14 5.1 3.01 11.97 2.59 17.73-.59 5.39-3.03 10.36-8.55 12.03-8.85 2.59-18.74 2.39-27.9 2.59-8.62.24-17.11-.65-25.69-1.22-.15 7.78-.06 15.67.28 23.45.42 3.42.96 8.47 4.93 9.56 5.77 1.76 12.57 1.03 18.51.56 12.42-.61 24.84-2.36 37.13-4.18 4.02-.31 8.12-1.01 11.57 1.56 4.62 3.2 6.77 9.73 7.56 15.05.6 5.31.52 11.95-2.37 16.64-3.46 5.14-10.41 5.93-16.02 6.86-24.49 3.37-49.62 4.84-74.27 2.43-8.31-.91-17.8-2.6-23.55-9.29-5.66-6.69-6.22-16.79-6.71-25.14-2.74-37.46-2.1-75.32.49-112.77.73-7.94 1.94-17.21 8.76-22.39 8.25-6.34 19.58-5.69 29.4-6.73 13.68-.7 27.27-1.53 40.98-1.01"/>
    <path fill="#fff" d="M632.2 371.64c1.75 3.72 3.07 7.74 4.48 11.63 5.12 14.73 10.27 29.66 13.63 44.91-11.97.53-24.08.81-36.05.34 1.15-5.63 3.07-11.09 4.58-16.62 4.09-13.5 8.04-27.18 13.36-40.26"/>
  </g>
</svg>
